<svg width="24" height="25" viewBox="0 0 24 25" fill="none" xmlns="http://www.w3.org/2000/svg">
<path fill-rule="evenodd" clip-rule="evenodd" d="M12.0035 22.7928C14.734 22.7928 17.3526 21.7081 19.2833 19.7774C21.2141 17.8467 22.2987 15.228 22.2987 12.4975C22.2987 9.76707 21.2141 7.14843 19.2833 5.2177C17.3526 3.28696 14.734 2.20229 12.0035 2.20229C9.27307 2.20229 6.65445 3.28696 4.72372 5.2177C2.793 7.14843 1.70832 9.76707 1.70832 12.4975C1.70832 15.228 2.793 17.8467 4.72372 19.7774C6.65445 21.7081 9.27307 22.7928 12.0035 22.7928ZM12.0035 24.1648C15.0977 24.1648 18.0652 22.9356 20.2531 20.7477C22.441 18.5598 23.6701 15.5923 23.6701 12.4981C23.6701 9.40393 22.441 6.43647 20.2531 4.24854C18.0652 2.06062 15.0977 0.831451 12.0035 0.831451C8.90935 0.831451 5.9419 2.06062 3.75399 4.24854C1.56607 6.43647 0.336914 9.40393 0.336914 12.4981C0.336914 15.5923 1.56607 18.5598 3.75399 20.7477C5.9419 22.9356 8.90935 24.1648 12.0035 24.1648Z" fill="url(#paint0_linear_313_151)"/>
<path d="M12.005 21.4193C14.3711 21.4193 16.6403 20.4793 18.3134 18.8062C19.9865 17.1331 20.9264 14.8639 20.9264 12.4978C20.9264 10.1316 19.9865 7.86242 18.3134 6.18931C16.6403 4.51621 14.3711 3.57626 12.005 3.57626C9.63884 3.57626 7.36963 4.51621 5.69653 6.18931C4.02343 7.86242 3.0835 10.1316 3.0835 12.4978C3.0835 14.8639 4.02343 17.1331 5.69653 18.8062C7.36963 20.4793 9.63884 21.4193 12.005 21.4193Z" fill="#627EEA"/>
<path d="M12.0047 10.7836V5.6351L7.88867 12.4986L12.0047 10.7836Z" fill="white"/>
<path d="M12.0047 10.7836V5.6351L16.123 12.4986L12.0047 10.7836ZM12.0047 10.7836L7.88867 12.4986L12.007 14.9008L12.0047 10.7836Z" fill="#C1CCF7"/>
<path d="M12.0059 14.9005V10.7822L16.1242 12.4983L12.0059 14.9005Z" fill="#8198EE"/>
<path d="M12.0024 15.9295L7.88525 13.1844L12.0036 19.3607L12.0024 15.9295Z" fill="white"/>
<path d="M16.1242 13.1843L12.0059 15.9295V19.3606L16.1242 13.1843Z" fill="#C1CCF7"/>
<defs>
<linearGradient id="paint0_linear_313_151" x1="18.5228" y1="3.57662" x2="5.14114" y2="21.7626" gradientUnits="userSpaceOnUse">
<stop stop-color="#269981"/>
<stop offset="1" stop-color="#142D44"/>
</linearGradient>
</defs>
</svg>
