<svg width="16" height="16" viewBox="0 0 16 16" fill="none" xmlns="http://www.w3.org/2000/svg">
<path d="M8.11028 15.8008C12.2206 15.8008 15.5526 12.4687 15.5526 8.35845C15.5526 4.24817 12.2206 0.916138 8.11028 0.916138C4.00001 0.916138 0.667969 4.24817 0.667969 8.35845C0.667969 12.4687 4.00001 15.8008 8.11028 15.8008Z" fill="#26A17B"/>
<path fill-rule="evenodd" clip-rule="evenodd" d="M8.99966 9.00296V9.00203C8.94849 9.00575 8.68476 9.02157 8.09635 9.02157C7.62655 9.02157 7.29583 9.00762 7.17955 9.00203V9.00343C5.37107 8.92389 4.02122 8.60899 4.02122 8.23222C4.02122 7.85592 5.37107 7.54101 7.17955 7.46008V8.68992C7.29769 8.69829 7.63632 8.7183 8.10426 8.7183C8.66568 8.7183 8.9471 8.69504 8.99966 8.69039V7.46101C10.8044 7.54148 12.151 7.85638 12.151 8.23222C12.151 8.60899 10.8044 8.92296 8.99966 9.00296ZM8.99966 7.3331V6.23256H11.518V4.55432H4.66126V6.23256H7.17955V7.33263C5.13291 7.42659 3.59375 7.83219 3.59375 8.31781C3.59375 8.80342 5.13291 9.20856 7.17955 9.30298V12.8297H8.99966V9.30205C11.043 9.20809 12.5785 8.80295 12.5785 8.31781C12.5785 7.83266 11.043 7.42752 8.99966 7.3331Z" fill="white"/>
</svg>
