<svg width="43" height="36" viewBox="0 0 43 36" fill="none" xmlns="http://www.w3.org/2000/svg">
<path fill-rule="evenodd" clip-rule="evenodd" d="M39.2914 10.2939C39.1783 10.2857 39.0528 10.2857 38.9212 10.2857H33.727C29.473 10.2857 25.834 13.6347 25.834 18C25.834 22.3653 29.475 25.7143 33.727 25.7143H38.9212C39.0528 25.7143 39.1783 25.7143 39.2955 25.7061C40.1699 25.6533 40.9952 25.2846 41.6177 24.6684C42.2403 24.0523 42.6176 23.2308 42.6794 22.357C42.6877 22.2336 42.6877 22.0999 42.6877 21.9765V14.0236C42.6877 13.9001 42.6877 13.7664 42.6794 13.643C42.6176 12.7692 42.2403 11.9478 41.6177 11.3316C40.9952 10.7155 40.1699 10.3467 39.2955 10.2939M33.2724 20.0571C34.3668 20.0571 35.2534 19.1355 35.2534 18C35.2534 16.8645 34.3668 15.9429 33.2724 15.9429C32.176 15.9429 31.2894 16.8645 31.2894 18C31.2894 19.1355 32.176 20.0571 33.2724 20.0571Z" fill="#5457DC"/>
<path fill-rule="evenodd" clip-rule="evenodd" d="M38.9159 28.8C38.987 28.7971 39.0578 28.8111 39.1225 28.8407C39.1872 28.8704 39.244 28.9149 39.2883 28.9706C39.3326 29.0263 39.3632 29.0917 39.3774 29.1614C39.3917 29.2311 39.3894 29.3032 39.3705 29.3719C38.9591 30.8366 38.3029 32.0873 37.2517 33.1365C35.711 34.6793 33.7588 35.3602 31.3479 35.6853C29.0028 36 26.0098 36 22.2288 36H17.8843C14.1034 36 11.1083 36 8.76523 35.6853C6.35433 35.3602 4.40216 34.6773 2.8614 33.1385C1.3227 31.5977 0.639753 29.6455 0.314734 27.2345C2.45224e-07 24.8894 0 21.8962 0 18.1152V17.8848C0 14.1038 2.45224e-07 11.1086 0.314734 8.76343C0.639753 6.35246 1.3227 4.40023 2.8614 2.85943C4.40216 1.32069 6.35433 0.637714 8.76523 0.312686C11.1103 -9.19615e-08 14.1034 0 17.8843 0H22.2288C26.0098 0 29.0049 2.45231e-07 31.3479 0.314743C33.7588 0.639772 35.711 1.32274 37.2517 2.86149C38.3029 3.91474 38.9591 5.16343 39.3705 6.62811C39.3894 6.69676 39.3917 6.76887 39.3774 6.8386C39.3632 6.90833 39.3326 6.97371 39.2883 7.02942C39.244 7.08514 39.1872 7.12962 39.1225 7.15926C39.0578 7.1889 38.987 7.20286 38.9159 7.2H33.7238C27.8879 7.2 22.7452 11.808 22.7452 18C22.7452 24.192 27.8879 28.8 33.7238 28.8H38.9159ZM7.71406 8.22857C7.30488 8.22857 6.91246 8.39112 6.62313 8.68046C6.3338 8.96981 6.17125 9.36224 6.17125 9.77143C6.17125 10.1806 6.3338 10.5731 6.62313 10.8624C6.91246 11.1517 7.30488 11.3143 7.71406 11.3143H15.9424C16.3516 11.3143 16.744 11.1517 17.0333 10.8624C17.3227 10.5731 17.4852 10.1806 17.4852 9.77143C17.4852 9.36224 17.3227 8.96981 17.0333 8.68046C16.744 8.39112 16.3516 8.22857 15.9424 8.22857H7.71406Z" fill="#5457DC"/>
</svg>
